<svg version="1.2" xmlns="http://www.w3.org/2000/svg" viewBox="0 0 57 57" width="57" height="57">
	<title>pre-svg</title>
	<style>
		.s0 { fill: none;stroke: #d38bfc;stroke-width: 2 } 
	</style>
	<filter id="f0">
		<feFlood flood-color="#4521f9" flood-opacity="1" />
		<feBlend mode="normal" in2="SourceGraphic"/>
		<feComposite in2="SourceAlpha" operator="in" />
	</filter>
	<g id="Layer" filter="url(#f0)">
		<g id="Layer">
			<path id="Layer" class="s0" d="m6 56c-2.8 0-5-2.2-5-5 0-2.8 2.2-5 5-5 2.8 0 5 2.2 5 5 0 2.8-2.2 5-5 5z"/>
			<path id="Layer" class="s0" d="m28 11c-2.8 0-5-2.2-5-5 0-2.8 2.2-5 5-5 2.8 0 5 2.2 5 5 0 2.8-2.2 5-5 5z"/>
			<path id="Layer" class="s0" d="m50 56c-2.8 0-5-2.2-5-5 0-2.8 2.2-5 5-5 2.8 0 5 2.2 5 5 0 2.8-2.2 5-5 5z"/>
		</g>
	</g>
</svg>